<?xml version="1.0" encoding="UTF-8" standalone="no"?>
<svg
   version="1.1"
   width="1000"
   height="1000"
   id="svg44"
   sodipodi:docname="icon.svg"
   inkscape:version="1.4.2 (f4327f4, 2025-05-13)"
   inkscape:export-filename="icon.png"
   inkscape:export-xdpi="24"
   inkscape:export-ydpi="24"
   xmlns:inkscape="http://www.inkscape.org/namespaces/inkscape"
   xmlns:sodipodi="http://sodipodi.sourceforge.net/DTD/sodipodi-0.dtd"
   xmlns:xlink="http://www.w3.org/1999/xlink"
   xmlns="http://www.w3.org/2000/svg"
   xmlns:svg="http://www.w3.org/2000/svg">
  <defs
     id="defs44">
    <linearGradient
       id="linearGradient46"
       inkscape:collect="always">
      <stop
         style="stop-color:#c0a10a;stop-opacity:1;"
         offset="0"
         id="stop46" />
      <stop
         style="stop-color:#c0340a;stop-opacity:1;"
         offset="1"
         id="stop47" />
    </linearGradient>
    <radialGradient
       inkscape:collect="always"
       xlink:href="#linearGradient46"
       id="radialGradient47"
       cx="496.04636"
       cy="137.98138"
       fx="496.04636"
       fy="137.98138"
       r="483.5"
       gradientUnits="userSpaceOnUse"
       gradientTransform="matrix(1.6008859,1.2526385,-0.87158453,1.1139343,-123.88882,-593.93211)" />
  </defs>
  <sodipodi:namedview
     id="namedview44"
     pagecolor="#ffffff"
     bordercolor="#000000"
     borderopacity="0.25"
     inkscape:showpageshadow="2"
     inkscape:pageopacity="0.0"
     inkscape:pagecheckerboard="true"
     inkscape:deskcolor="#d1d1d1"
     inkscape:zoom="0.30556128"
     inkscape:cx="-819.80282"
     inkscape:cy="-266.72227"
     inkscape:window-width="1920"
     inkscape:window-height="1129"
     inkscape:window-x="1912"
     inkscape:window-y="-8"
     inkscape:window-maximized="1"
     inkscape:current-layer="svg44" />
  <path
     fill="#c0340a"
     d="M 195.49674,1.0358964 C 207.65216,0.39364065 322.61553,0 496.01397,0 c 169.94766,0 290.65197,0.40399961 305.69855,1.0358964 13.6787,0.5697431 29.53359,1.7403061 35.23305,2.5897412 5.69946,0.859794 14.09322,2.4861514 18.6528,3.6256375 4.55956,1.1394861 12.25903,3.4702529 17.09838,5.1794819 4.83938,1.70923 13.47146,5.438457 19.17092,8.287172 5.69947,2.848715 13.38857,7.044096 17.09841,9.323068 3.70983,2.278972 10.2383,6.712609 14.50772,9.841016 4.26941,3.138766 12.19687,9.892811 17.61652,15.020499 5.41969,5.127687 12.64245,12.824398 16.06214,17.092291 3.41967,4.267893 9.01551,11.964604 12.43519,17.092291 3.41968,5.127688 8.31086,13.518446 10.8808,18.646136 2.56994,5.12769 6.30049,13.51845 8.29013,18.64614 1.98964,5.12768 5.02589,14.68901 6.73573,21.23587 1.70983,6.54687 3.8031,18.43896 4.66319,26.41536 1.3472,12.56543 1.5544,56.51851 1.5544,328.37918 0,201.30575 -0.373,317.78195 -1.0363,324.75353 -0.5699,5.97713 -2.19684,16.2325 -3.62689,22.78972 -1.43005,6.55723 -4.45595,17.0405 -6.73573,23.30767 -2.2798,6.26718 -6.01035,15.12409 -8.29013,19.68204 -2.27979,4.55794 -6.47666,12.25465 -9.3264,17.09229 -2.84973,4.83764 -9.15023,13.70491 -13.9896,19.68203 -4.83934,5.97712 -12.31084,14.13999 -16.58026,18.12819 -4.26941,3.9882 -11.74089,10.27609 -16.58025,13.9846 -4.83937,3.70851 -11.83417,8.59794 -15.544,10.87691 -3.70982,2.27898 -10.46629,6.0082 -15.02586,8.28718 -4.55957,2.27897 -11.08804,5.30379 -14.50773,6.73332 -3.41968,1.42954 -11.81344,4.22646 -18.65278,6.21538 -6.83937,1.98892 -18.96367,4.55795 -26.94294,5.69743 -14.25902,2.04073 -20.03101,2.07183 -332.64147,2.07183 -276.5691,0 -319.76068,-0.2072 -330.56894,-1.5539 -6.83934,-0.85977 -17.09839,-2.71403 -22.79785,-4.14357 -5.69947,-1.42953 -13.86524,-3.74994 -18.13466,-5.17948 -4.26942,-1.42954 -13.13987,-5.15876 -19.68907,-8.28717 -6.54919,-3.12841 -16.580254,-8.72225 -22.279717,-12.43076 -5.699465,-3.70851 -13.865244,-9.53024 -18.13466,-12.9487 -4.269418,-3.41846 -11.502556,-10.18286 -16.062128,-15.0205 -4.559572,-4.83764 -11.554369,-13.2284 -15.543994,-18.64614 -3.989625,-5.41774 -8.891163,-12.63793 -10.880796,-16.05639 -1.989631,-3.41846 -5.95853,-11.11517 -8.808264,-17.09229 -2.84973,-5.97713 -6.81863,-15.77671 -8.808263,-21.75383 C 8.533587,862.62205 5.9636466,852.82247 4.8237537,846.84535 3.6838607,840.86822 2.2849013,832.23921 1.7149548,827.68126 1.0517444,822.41891 0.49216072,710.14845 0.16055552,520.02002 -0.17104969,328.08912 0.01547824,212.46236 0.67868865,197.85622 1.2486351,185.32187 2.4196159,170.87112 3.2693543,165.74343 c 0.860101,-5.12769 2.7150175,-13.9846 4.1450651,-19.68203 1.4300475,-5.69743 4.2279666,-14.55435 6.2175976,-19.68203 1.989633,-5.12769 5.720191,-13.51845 8.29013,-18.64614 2.569941,-5.12769 7.461118,-13.518448 10.880796,-18.646136 C 36.222622,83.959407 41.81846,76.262696 45.23814,71.994803 48.657817,67.72691 55.652615,60.258096 60.782133,55.42046 65.911651,50.582824 73.839087,43.81842 78.39866,40.399961 c 4.559571,-3.418458 12.25903,-8.546145 17.098392,-11.39486 4.839368,-2.848716 13.243488,-7.271994 18.652788,-9.841017 5.40932,-2.569023 14.27976,-6.059994 19.68906,-7.769223 5.40931,-1.7092292 12.64246,-3.80174 16.06213,-4.6615341 3.41967,-0.859794 10.65283,-2.2478953 16.06214,-3.1076893 5.40929,-0.8494351 18.7046,-2.0199981 29.53357,-2.5897412 z"
     fill-rule="evenodd"
     id="path32"
     style="fill:url(#radialGradient47);fill-opacity:1;stroke-width:1.03608"
     sodipodi:nodetypes="csccsssscsssssscscssssssssssscscsssssssssssccccssssssssssscc" />
  <path
     fill="#fefdfb"
     d="m 494.16793,184.92938 c 2.32,-1.93 4.13,-2.5 8,-2.5 4.29,0 5.57,0.5 9,3.5 2.2,1.93 10.52,9.35 18.5,16.5 7.98,7.15 20.35,18.4 27.5,25 7.15,6.6 22.9,21 35,32 12.1,11 34.38005,31.25 49.50005,45 15.12,13.75 39.88,36.25 55,50 15.12,13.75 36.73,33.32 48,43.5 11.27,10.18 40.52,36.73 65,59 36.3,33.03 44.68,41.15 45.5,44 0.55,1.92 0.77,4.85 0.5,6.5 -0.27,1.65 -1.4,4.12 -2.5,5.5 -1.1,1.38 -3.35,3.17 -5,4 -2.53,1.27 -10.06,1.5 -94,1.5 v 113 c 0,98.22 -0.2,113.46 -1.5,116.5 -0.83,1.92 -2.85,4.4 -4.5,5.5 -2.98,1.99 -4.67,2 -246.00005,2 -241.33,0 -243.02,-0.01 -246,-2 -1.65,-1.1 -3.68,-3.58 -4.5,-5.5 -1.3,-3.04 -1.5,-18.28 -1.5,-229.5 l -94,-1 -3.5,-3.5 c -2.48,-2.48 -3.65,-4.67 -4,-7.5 -0.31,-2.49 0.07,-5.13 1,-7 0.82,-1.65 21.07,-20.77 45,-42.5 23.93,-21.73 52.73,-47.82 64,-58 11.27,-10.18 26.35,-23.9 33.5,-30.5 7.15,-6.6 14.12,-13.12 18,-17 l 0.5,-52.5 c 0.42,-43.95 0.74,-52.99 2,-55.5 0.95,-1.9 3.14,-3.73 6,-5 4.26,-1.89 6.67,-2 44.5,-2 38.33,0 40.12,0.08 43,2 1.65,1.1 3.9,3.35 5,5 1.1,1.65 2.45,5.25 4,13 l 6,-5.5 c 3.3,-3.02 13.2,-12.02 22,-20 8.8,-7.98 23.2,-21.03 32,-29 8.8,-7.97 17.35,-15.62 19,-17 z m 7,28.5 c -24.02,22.48 -40,37.1 -51,47 -11,9.9 -25.18,22.73 -31.5,28.5 -6.32,5.77 -12.62,10.73 -14,11 -1.38,0.27 -4.07,0.27 -6,0 -1.93,-0.27 -4.62,-1.4 -6,-2.5 -1.38,-1.1 -3.18,-3.57 -4,-5.5 -1.07,-2.49 -1.5,-7.11 -1.5,-16 v -12.5 h -50 c 0,89.61 -0.23,97.46 -1.5,100 -0.82,1.65 -3.3,4.57 -5.5,6.5 -2.2,1.93 -23.57,21.27 -47.5,43 -23.93,21.73 -50.25,45.57 -58.5,53 -8.25,7.42 -17.7,16.2 -21,19.5 l -6,6 c 60.83,0 67.74,0.28 71,1.5 2.67,1 4.67,2.67 6,5 1.96,3.43 2.01,5.81 2.5,117 l 0.5,113.5 h 450.00005 c 1.63,-186.76 2.37,-229.74 3,-231 0.55,-1.1 2.35,-2.67 4,-3.5 2.36,-1.18 10.42,-1.71 38,-2.5 l 35,-1 c -32.55,-29.45 -50.33,-45.65 -60.5,-55 -10.17,-9.35 -23,-21.05 -28.5,-26 -5.5,-4.95 -16.75,-15.07 -25,-22.5 -8.25,-7.43 -23.1,-20.93 -33,-30 -9.9,-9.07 -26.77,-24.38 -37.5,-34 -10.73005,-9.62 -23.10005,-20.88 -27.50005,-25 -4.4,-4.12 -20.15,-18.52 -35,-32 -14.85,-13.48 -30.83,-28.1 -35.5,-32.5 -4.67,-4.4 -11.88,-10.7 -16,-14 z"
     fill-rule="evenodd"
     id="path33" />
  <g
     id="g45"
     transform="translate(15.041808,-31.240678)">
    <path
       fill="#fefcfb"
       d="m 398.65494,442.5 c 1.65,-0.82 4.35,-1.5 6,-1.5 1.65,0 4.35,0.68 6,1.5 1.65,0.82 3.9,2.85 5,4.5 1.1,1.65 2,4.57 2,6.5 0,1.93 -0.68,4.85 -1.5,6.5 -0.82,1.65 -3.52,5.48 -6,8.5 -2.48,3.02 -5.85,7.98 -7.5,11 -1.65,3.02 -3.9,8.42 -5,12 -1.33,4.33 -2,9.33 -2,15 0,5.67 0.67,10.67 2,15 1.1,3.58 4.25,10.1 7,14.5 2.75,4.4 8.6,12.95 13,19 4.4,6.05 9.57,13.48 11.5,16.5 1.93,3.02 4.85,8.65 6.5,12.5 1.65,3.85 3.68,9.92 4.5,13.5 1.07,4.65 1.36,9.77 1,18 -0.41,9.38 -1.05,13.07 -3.5,20 -1.65,4.67 -4.8,11.88 -7,16 -2.2,4.12 -6.48,10.42 -9.5,14 -3.02,3.58 -6.85,7.17 -8.5,8 -1.65,0.83 -4.8,1.5 -7,1.5 -2.8,0 -4.9,-0.75 -7,-2.5 -1.65,-1.38 -3.45,-4.08 -4,-6 -0.55,-1.92 -0.77,-5.08 -0.5,-7 0.31,-2.18 2,-5.19 4.5,-8 2.2,-2.48 5.57,-6.98 7.5,-10 1.93,-3.02 4.4,-7.75 5.5,-10.5 1.1,-2.75 2.45,-8.15 3,-12 0.67,-4.67 0.67,-9 0,-13 -0.55,-3.3 -2.8,-9.83 -5,-14.5 -2.3,-4.88 -9.11,-15.53 -16,-25 -6.6,-9.08 -13.8,-20.1 -16,-24.5 -2.2,-4.4 -4.9,-11.38 -6,-15.5 -1.49,-5.6 -2,-10.67 -2,-20 0,-9.33 0.51,-14.4 2,-20 1.1,-4.12 4.02,-11.55 6.5,-16.5 2.48,-4.95 7.43,-12.82 11,-17.5 3.57,-4.68 7.85,-9.18 9.5,-10 z"
       fill-rule="evenodd"
       id="path36" />
    <path
       fill="#fefcfb"
       d="m 476.65494,443 c 2.29,-1.52 4.07,-1.88 7.5,-1.5 3.43,0.38 5.33,1.33 8,4 3.07,3.07 3.5,4.12 3.5,8.5 0,4.62 -0.5,5.65 -6.5,13.5 -3.58,4.68 -7.85,11.43 -9.5,15 -1.65,3.58 -3.68,8.98 -4.5,12 -0.82,3.02 -1.5,8.2 -1.5,11.5 0,3.3 0.68,8.7 1.5,12 0.82,3.3 3.3,9.6 5.5,14 2.2,4.4 8.95,14.52 15,22.5 7.67,10.12 12.51,17.67 16,25 2.75,5.77 5.67,13.2 6.5,16.5 0.86,3.43 1.5,10.5 1.5,16.5 0,6 -0.64,13.07 -1.5,16.5 -0.83,3.3 -3.3,9.83 -5.5,14.5 -2.2,4.67 -6.25,11.88 -9,16 -2.75,4.12 -7.02,9.3 -9.5,11.5 -3.98,3.53 -5.08,4 -9.5,4 -3.87,0 -5.68,-0.57 -8,-2.5 -1.79,-1.49 -3.4,-4.11 -4,-6.5 -0.55,-2.2 -0.77,-5.12 -0.5,-6.5 0.27,-1.38 3.2,-5.88 6.5,-10 3.3,-4.12 7.35,-10.2 9,-13.5 1.65,-3.3 3.67,-8.7 4.5,-12 0.83,-3.3 1.5,-8.48 1.5,-11.5 0,-3.02 -0.67,-7.98 -1.5,-11 -0.83,-3.02 -2.85,-8.2 -4.5,-11.5 -1.65,-3.3 -5.02,-8.7 -7.5,-12 -2.48,-3.3 -7.65,-10.5 -11.5,-16 -3.85,-5.5 -8.57,-12.7 -10.5,-16 -1.93,-3.3 -4.4,-8.48 -5.5,-11.5 -1.1,-3.02 -2.68,-8.2 -3.5,-11.5 -0.88,-3.52 -1.5,-10.56 -1.5,-17 0,-6.44 0.62,-13.48 1.5,-17 0.82,-3.3 3.52,-10.27 6,-15.5 2.48,-5.23 5.85,-11.52 7.5,-14 1.65,-2.48 4.8,-6.75 7,-9.5 2.2,-2.75 5.35,-5.9 7,-7 z"
       fill-rule="evenodd"
       id="path37" />
    <path
       fill="#fefdfb"
       d="m 555.65494,442.5 c 1.65,-0.82 4.35,-1.5 6,-1.5 1.65,0 4.58,0.9 6.5,2 2.02,1.15 4.14,3.48 5,5.5 0.86,2 1.29,5 1,7 -0.31,2.2 -2.74,6.48 -6.5,11.5 -3.3,4.4 -7.12,10.25 -8.5,13 -1.38,2.75 -3.17,6.8 -4,9 -0.83,2.2 -1.95,7.15 -2.5,11 -0.77,5.42 -0.66,8.8 0.5,15 0.83,4.4 2.62,10.48 4,13.5 1.38,3.02 5.65,10.23 9.5,16 3.85,5.77 9.7,13.88 13,18 3.3,4.12 8.02,11.77 10.5,17 2.48,5.23 5.4,12.88 6.5,17 1.1,4.12 2,10.65 2,14.5 0,3.85 -0.45,9.7 -1,13 -0.55,3.3 -2.35,9.6 -4,14 -1.65,4.4 -4.58,10.7 -6.5,14 -1.92,3.3 -5.98,8.92 -9,12.5 -3.02,3.58 -6.62,7.4 -8,8.5 -1.56,1.25 -4,2 -6.5,2 -2.2,0 -5.35,-0.67 -7,-1.5 -1.65,-0.83 -3.67,-2.85 -4.5,-4.5 -0.83,-1.65 -1.5,-4.8 -1.5,-7 0,-2.5 0.75,-4.94 2,-6.5 1.1,-1.38 4.02,-5.2 6.5,-8.5 2.48,-3.3 5.62,-8.25 7,-11 1.38,-2.75 3.17,-7.48 4,-10.5 0.83,-3.02 1.5,-9.1 1.5,-13.5 0,-5.5 -0.62,-9.72 -2,-13.5 -1.1,-3.02 -3.58,-8.2 -5.5,-11.5 -1.92,-3.3 -8.45,-12.75 -14.5,-21 -6.05,-8.25 -12.58,-18.15 -14.5,-22 -1.92,-3.85 -4.62,-10.38 -6,-14.5 -2.22,-6.67 -2.5,-9.17 -2.5,-22.5 0,-13.89 0.22,-15.7 3,-24.5 1.83,-5.79 4.95,-12.62 8,-17.5 2.75,-4.4 7.25,-10.93 10,-14.5 2.75,-3.57 6.35,-7.18 8,-8 z"
       fill-rule="evenodd"
       id="path38" />
  </g>
</svg>
